<?xml version="1.0" standalone="no"?>
<!DOCTYPE svg PUBLIC "-//W3C//DTD SVG 20010904//EN"
 "http://www.w3.org/TR/2001/REC-SVG-20010904/DTD/svg10.dtd">
<svg version="1.0" xmlns="http://www.w3.org/2000/svg"
 width="114.000000pt" height="114.000000pt" viewBox="0 0 114.000000 114.000000"
 preserveAspectRatio="xMidYMid meet">
<metadata>
Created by potrace 1.11, written by Peter Selinger 2001-2013
</metadata>
<g transform="translate(0.000000,114.000000) scale(0.100000,-0.100000)"
fill="#000000" stroke="none">
<path d="M381 1031 c-15 -9 -16 -14 -27 -84 -3 -21 -7 -46 -9 -55 -2 -9 -4
-20 -4 -24 -1 -5 -39 -8 -85 -8 -61 0 -87 -4 -96 -14 -14 -18 -15 -165 0 -180
5 -5 42 -10 80 -10 l71 0 -6 -31 c-2 -16 -8 -54 -11 -83 -4 -30 -12 -59 -19
-65 -7 -7 -38 -11 -76 -11 -35 1 -70 -3 -76 -9 -9 -6 -13 -38 -13 -93 0 -94 7
-104 76 -103 22 1 44 1 51 0 13 -1 12 -31 -2 -118 -6 -34 -4 -43 11 -51 21
-10 153 -10 170 1 6 4 17 43 24 87 14 88 7 82 95 82 25 0 50 -1 56 -1 10 -1 8
-37 -6 -121 -8 -46 7 -55 95 -55 49 -1 85 4 90 10 6 7 15 46 22 88 9 57 16 77
27 78 9 1 49 1 88 2 85 1 86 2 87 110 1 84 -9 95 -84 95 -75 0 -82 1 -77 10 3
4 8 30 12 57 3 28 9 66 13 85 l8 35 71 0 c39 1 78 6 85 13 19 16 16 171 -4
183 -7 5 -39 9 -70 9 l-57 0 6 38 c3 20 9 54 13 75 12 55 -5 67 -93 67 -40 0
-77 -4 -83 -8 -13 -8 -21 -31 -30 -92 -3 -25 -7 -52 -8 -60 -2 -12 -21 -16
-80 -18 l-77 -3 6 38 c23 144 24 143 -73 143 -42 0 -83 -4 -91 -9z m274 -421
c-3 -25 -9 -65 -12 -90 -2 -25 -7 -47 -9 -49 -9 -9 -144 -5 -145 4 -2 18 -1
29 11 106 l12 76 75 -1 75 -1 -7 -45z"/>
</g>
</svg>
