<?xml version="1.0" standalone="no"?>
<!DOCTYPE svg PUBLIC "-//W3C//DTD SVG 20010904//EN"
 "http://www.w3.org/TR/2001/REC-SVG-20010904/DTD/svg10.dtd">
<svg version="1.0" xmlns="http://www.w3.org/2000/svg"
 width="512.000000pt" height="512.000000pt" viewBox="0 0 512.000000 512.000000"
 preserveAspectRatio="xMidYMid meet">
<metadata>
Created by potrace 1.11, written by Peter Selinger 2001-2013
</metadata>
<g transform="translate(0.000000,512.000000) scale(0.100000,-0.100000)"
fill="#000000" stroke="none">
<path d="M1720 4719 c-45 -20 -86 -69 -100 -117 -5 -20 -19 -102 -30 -182 -12
-80 -23 -157 -25 -172 -9 -54 -14 -83 -20 -133 -3 -27 -8 -57 -10 -65 -2 -8
-6 -37 -10 -65 -3 -27 -8 -51 -11 -54 -2 -2 -172 -5 -377 -5 -348 -1 -375 -2
-402 -20 -87 -55 -88 -59 -90 -436 -2 -346 1 -367 48 -419 47 -51 69 -54 390
-53 164 1 296 -2 293 -6 -2 -4 -7 -34 -10 -67 -4 -33 -9 -67 -11 -75 -3 -8 -7
-31 -9 -50 -3 -19 -7 -51 -10 -70 -12 -79 -27 -187 -31 -225 -3 -22 -7 -47
-10 -55 -2 -8 -7 -37 -10 -65 -3 -27 -12 -90 -20 -140 -8 -49 -15 -93 -15 -97
0 -5 -147 -8 -327 -8 -306 0 -329 -1 -367 -20 -23 -11 -52 -36 -66 -57 l-25
-37 0 -350 c0 -350 0 -351 23 -383 12 -18 37 -43 55 -55 33 -24 81 -26 505
-28 59 0 62 -1 57 -22 -2 -13 -6 -39 -9 -58 -3 -19 -23 -158 -46 -309 -24
-154 -39 -287 -36 -305 7 -38 58 -89 101 -103 17 -5 176 -9 361 -9 l331 1 35
27 c44 33 74 95 83 167 4 30 9 63 11 75 2 11 6 38 9 61 5 34 16 114 30 200 1
11 11 77 21 148 l18 127 76 0 c126 1 501 1 561 1 l57 -1 -8 -37 c-5 -21 -11
-60 -15 -87 -10 -83 -36 -250 -40 -266 -2 -8 -6 -40 -10 -70 -3 -30 -9 -71
-14 -90 -4 -19 -9 -63 -10 -97 -2 -61 -2 -63 42 -106 24 -24 54 -46 68 -49 13
-2 170 -4 349 -3 316 0 326 1 360 22 47 29 77 84 89 163 13 85 36 241 56 380
3 19 10 60 15 90 5 30 12 75 15 99 3 25 7 46 9 48 2 2 167 4 367 4 330 1 367
3 399 19 19 10 43 26 52 37 43 47 45 72 44 423 l-2 335 -24 38 c-14 20 -43 46
-66 57 -37 19 -61 20 -338 20 -279 0 -297 1 -292 18 3 9 8 37 11 62 3 25 7 56
10 70 3 14 7 43 10 65 5 43 24 175 31 215 2 14 15 104 29 200 14 96 28 187 31
202 l5 26 319 0 c176 0 329 4 342 7 40 13 78 45 98 84 17 35 19 63 20 362 0
187 -4 338 -10 358 -11 40 -53 88 -90 104 -15 6 -127 11 -283 12 -141 1 -259
4 -261 6 -3 2 -1 24 4 49 4 25 11 61 14 80 21 142 37 252 42 290 3 25 9 63 14
85 5 22 12 75 16 117 6 71 5 81 -17 112 -48 71 -46 70 -420 71 l-336 0 -39
-27 c-62 -43 -78 -79 -99 -228 -3 -25 -8 -56 -10 -70 -2 -14 -6 -45 -10 -70
-3 -25 -8 -56 -10 -70 -3 -14 -7 -38 -9 -55 -8 -52 -17 -119 -22 -150 -3 -16
-9 -54 -14 -84 -6 -30 -10 -55 -10 -55 0 -1 -156 -1 -346 -1 l-345 0 6 51 c3
29 7 60 9 70 6 34 19 119 21 139 2 11 8 49 14 85 6 36 13 85 16 110 3 25 11
79 18 121 22 126 9 171 -64 214 -31 18 -54 19 -358 20 -278 0 -330 -2 -361
-16z m1247 -1753 c-2 -17 -14 -96 -25 -176 -19 -130 -65 -437 -77 -515 -3 -16
-8 -54 -11 -82 l-7 -53 -344 0 -345 0 6 53 c4 28 11 77 16 107 5 30 11 74 14
96 3 23 12 84 20 135 16 100 21 137 31 209 3 25 10 70 15 100 5 30 12 75 15
100 4 24 9 48 11 52 2 4 158 7 345 6 l341 0 -5 -32z"/>
</g>
</svg>
